<svg width="20" height="21" viewBox="0 0 20 21" fill="none" xmlns="http://www.w3.org/2000/svg">
<g id="Capa_1" clip-path="url(#clip0_1432_12771)">
<path id="Vector" d="M13.5124 4.49739C13.272 4.25699 12.8826 4.25699 12.6422 4.49739L0.334592 16.805C0.0941986 17.0454 0.0941986 17.4348 0.334592 17.6752L2.79613 20.1368C2.91631 20.2569 3.07377 20.317 3.23124 20.317C3.38871 20.317 3.54613 20.2569 3.66635 20.1368L15.974 7.8291C16.2144 7.58871 16.2144 7.19932 15.974 6.95892L13.5124 4.49739ZM3.2312 18.8315L1.63988 17.2401L10.0004 8.87961L11.5918 10.471C11.5918 10.4709 3.2312 18.8315 3.2312 18.8315ZM12.462 9.60075L10.8706 8.00939L13.0773 5.80268L14.6687 7.39403L12.462 9.60075Z" fill="#3B3B3B"/>
<path id="Vector_2" d="M8.77013 5.5479C9.38553 4.31715 10.0009 3.70176 11.2317 3.08636C10.0009 2.47097 9.38553 1.85561 8.77013 0.624825C8.15474 1.85557 7.5393 2.47097 6.30859 3.08636C7.53938 3.70176 8.15474 4.31715 8.77013 5.5479Z" fill="#3B3B3B"/>
<path id="Vector_3" d="M18.6155 9.24021C18.3078 9.85561 18 10.1633 17.3848 10.471C18.0002 10.7786 18.3078 11.0864 18.6155 11.7017C18.9232 11.0863 19.2309 10.7786 19.8463 10.471C19.2309 10.1633 18.9232 9.85556 18.6155 9.24021Z" fill="#3B3B3B"/>
<path id="Vector_4" d="M18.6142 2.4711C17.6911 2.00954 17.2295 1.54802 16.768 0.624952C16.3065 1.54802 15.8449 2.00958 14.9219 2.4711C15.8449 2.93265 16.3065 3.39417 16.768 4.31724C17.2296 3.39417 17.6911 2.93261 18.6142 2.4711Z" fill="#3B3B3B"/>
</g>
<defs>
<clipPath id="clip0_1432_12771">
<rect width="19.6923" height="19.6923" fill="white" transform="translate(0.154297 0.62483)"/>
</clipPath>
</defs>
</svg>
