<svg width="25" height="25" viewBox="0 0 25 25" fill="none" xmlns="http://www.w3.org/2000/svg">
<g clip-path="url(#clip0_1432_4331)">
<path d="M19.2312 19.0807L16.4328 18.5578C16.4147 18.5545 16.3964 18.5528 16.378 18.5528H8.62201C8.60366 18.5528 8.58532 18.5545 8.56723 18.5578L5.74353 19.0868C4.30386 19.49 3.55078 20.9081 3.55078 22.1007V23.7353C3.55078 24.3319 4.08595 24.8173 4.74401 24.8173H20.256C20.9141 24.8173 21.4492 24.3319 21.4492 23.7353V22.1007C21.4492 20.9081 20.6962 19.49 19.2312 19.0807Z" fill="#996459"/>
<path d="M13.9465 24.8172L13.3914 21.4869C13.3675 21.343 13.2431 21.2375 13.0972 21.2375H11.904C11.758 21.2375 11.6336 21.3429 11.6097 21.4869L11.0547 24.8172H13.9465Z" fill="#4BB9EC"/>
<path d="M11.9039 21.2375C11.8276 21.2375 11.7583 21.2673 11.7051 21.3153L13.6943 23.3046L13.5255 22.2922L12.4709 21.2375H11.9039Z" fill="#009BCA"/>
<path d="M13.6912 19.7513C13.6909 19.5867 13.5574 19.4536 13.3928 19.4536H11.9013C11.7883 19.4536 11.6851 19.5174 11.6345 19.6185L11.3362 20.2151C11.3152 20.2568 11.3044 20.3028 11.3047 20.3497L11.3067 20.9393C11.3067 21.4325 11.7082 21.8339 12.2017 21.8339H12.7983C13.2918 21.8339 13.6932 21.4325 13.6932 20.9384L13.6912 19.7513Z" fill="#3482AC"/>
<path d="M12.643 18.5966L9.96025 17.099C9.83004 17.0259 9.66631 17.0614 9.57689 17.1797L8.45096 18.6712C8.37404 18.7732 8.37027 18.9127 8.44194 19.0182L10.2606 21.7027C10.3608 21.8504 10.5202 21.9447 10.6976 21.9616C10.7168 21.9634 10.736 21.9642 10.755 21.9642C10.9123 21.9642 11.0632 21.9025 11.1759 21.79C11.1835 21.7825 11.1908 21.7743 11.1975 21.7659L12.4335 20.2312C12.4469 20.2149 12.4586 20.1968 12.4679 20.1779L12.7642 19.5874C12.7851 19.546 12.7959 19.5 12.7959 19.4537V18.8571C12.7959 18.749 12.7373 18.6494 12.643 18.5966Z" fill="#B4B6BC"/>
<path d="M12.3521 18.5966L15.0349 17.099C15.1651 17.0259 15.3288 17.0614 15.4182 17.1797L16.5441 18.6712C16.6211 18.7732 16.6248 18.9127 16.5532 19.0182L14.7345 21.7027C14.6343 21.8504 14.4749 21.9447 14.2975 21.9616C14.2783 21.9634 14.2591 21.9642 14.2401 21.9642C14.0828 21.9642 13.9319 21.9025 13.8192 21.79C13.8116 21.7825 13.8043 21.7743 13.7976 21.7659L12.5616 20.2312C12.5482 20.2149 12.5366 20.1968 12.5272 20.1779L12.231 19.5874C12.21 19.546 12.1992 19.5 12.1992 19.4537V18.8571C12.1992 18.749 12.2578 18.6494 12.3521 18.5966Z" fill="#B4B6BC"/>
<path d="M16.6744 11.3993L16.0859 10.8027C16.0859 10.8027 14.0642 10.2558 9.81328 10.8027L8.02344 11.3993C8.02344 11.8095 8.02344 12.0537 8.02344 13.4875C8.02344 16.453 10.0268 18.857 12.4981 18.857C14.9693 18.857 16.9727 16.453 16.9727 13.4875C16.9727 13.0062 16.9727 12.0892 16.9727 11.3993C16.8954 11.4856 16.6744 11.3993 16.6744 11.3993Z" fill="#FFDCAD"/>
<path d="M10.703 14.6807C11.362 14.6807 11.8962 14.1465 11.8962 13.4875C11.8962 12.8285 11.362 12.2943 10.703 12.2943C10.044 12.2943 9.50977 12.8285 9.50977 13.4875C9.50977 14.1465 10.044 14.6807 10.703 14.6807Z" fill="#AEEFFF"/>
<path d="M10.7103 12.2943C10.383 12.2943 10.0867 12.4265 9.87109 12.64L11.5578 14.3267C11.7714 14.1111 11.9036 13.8149 11.9036 13.4875C11.9036 12.8285 11.3694 12.2943 10.7103 12.2943Z" fill="white"/>
<path d="M14.2811 14.6807C14.9401 14.6807 15.4744 14.1465 15.4744 13.4875C15.4744 12.8285 14.9401 12.2943 14.2811 12.2943C13.6221 12.2943 13.0879 12.8285 13.0879 13.4875C13.0879 14.1465 13.6221 14.6807 14.2811 14.6807Z" fill="#AEEFFF"/>
<path d="M14.2904 12.2943C13.963 12.2943 13.6667 12.4265 13.4512 12.64L15.1379 14.3267C15.3514 14.1111 15.4837 13.8149 15.4837 13.4875C15.4837 12.8285 14.9495 12.2943 14.2904 12.2943Z" fill="white"/>
<path d="M13.1029 13.7857C12.938 13.7857 12.8046 13.6523 12.8046 13.4874C12.8046 13.3228 12.6708 13.1891 12.5063 13.1891C12.3417 13.1891 12.2079 13.3228 12.2079 13.4874C12.2079 13.6523 12.0745 13.7857 11.9096 13.7857C11.7447 13.7857 11.6113 13.6523 11.6113 13.4874C11.6113 12.9939 12.0128 12.5925 12.5063 12.5925C12.9997 12.5925 13.4012 12.9939 13.4012 13.4874C13.4012 13.6523 13.2677 13.7857 13.1029 13.7857Z" fill="#5C546A"/>
<path d="M9.52262 13.4876H8.02292C7.85803 13.4876 7.72461 13.3542 7.72461 13.1893C7.72461 13.0244 7.85803 12.891 8.02292 12.891H9.52262C9.68751 12.891 9.82093 13.0244 9.82093 13.1893C9.82093 13.3542 9.68747 13.4876 9.52262 13.4876Z" fill="#5C546A"/>
<path d="M16.9731 13.4876H15.4897C15.3248 13.4876 15.1914 13.3542 15.1914 13.1893C15.1914 13.0244 15.3248 12.891 15.4897 12.891H16.9731C17.138 12.891 17.2714 13.0244 17.2714 13.1893C17.2714 13.3542 17.138 13.4876 16.9731 13.4876Z" fill="#5C546A"/>
<path d="M10.7161 14.9791C9.89375 14.9791 9.22461 14.31 9.22461 13.4876C9.22461 12.6652 9.89375 11.996 10.7161 11.996C11.5385 11.996 12.2077 12.6652 12.2077 13.4876C12.2077 14.31 11.5385 14.9791 10.7161 14.9791ZM10.7161 12.5926C10.2227 12.5926 9.82122 12.9941 9.82122 13.4876C9.82122 13.981 10.2227 14.3825 10.7161 14.3825C11.2096 14.3825 11.6111 13.981 11.6111 13.4876C11.6111 12.9941 11.2096 12.5926 10.7161 12.5926Z" fill="#868491"/>
<path d="M14.2962 14.9791C13.4738 14.9791 12.8047 14.31 12.8047 13.4876C12.8047 12.6652 13.4738 11.996 14.2962 11.996C15.1186 11.996 15.7878 12.6652 15.7878 13.4876C15.7878 14.31 15.1186 14.9791 14.2962 14.9791ZM14.2962 12.5926C13.8028 12.5926 13.4013 12.9941 13.4013 13.4876C13.4013 13.981 13.8028 14.3825 14.2962 14.3825C14.7897 14.3825 15.1911 13.981 15.1911 13.4876C15.1911 12.9941 14.7897 12.5926 14.2962 12.5926Z" fill="#868491"/>
<path d="M11.2289 16.2691C11.0672 16.2691 10.9085 16.2167 10.7777 16.0562C10.674 15.9283 10.6932 15.7404 10.8211 15.6364C10.9493 15.5327 11.1369 15.5519 11.2409 15.6798C11.2717 15.6844 11.432 15.6288 11.536 15.5933C11.848 15.4869 12.2753 15.341 12.6739 15.625C12.8082 15.7206 12.8393 15.9067 12.7438 16.041C12.6482 16.1747 12.4621 16.2062 12.3278 16.1109C12.1888 16.0116 12.0085 16.0626 11.7283 16.1581C11.5797 16.2088 11.4028 16.2691 11.2289 16.2691Z" fill="white"/>
<path d="M13.7714 16.2689C13.5978 16.2689 13.4207 16.2086 13.2721 16.1579C12.9915 16.0626 12.8112 16.0113 12.6725 16.1107C12.5385 16.2065 12.3521 16.1748 12.2566 16.0408C12.161 15.9064 12.1922 15.7203 12.3265 15.6248C12.7244 15.3413 13.1523 15.4867 13.4644 15.593C13.5684 15.6285 13.7251 15.6848 13.7749 15.6714C13.8786 15.5438 14.0586 15.5283 14.1868 15.632C14.3147 15.7357 14.3264 15.9277 14.2227 16.0556C14.0921 16.2165 13.9331 16.2689 13.7714 16.2689Z" fill="white"/>
<path d="M13.691 17.0425C13.681 16.8852 13.5508 16.7628 13.3932 16.7628H11.6069C11.4493 16.7628 11.3191 16.8852 11.3092 17.0425C11.3037 17.1316 11.1839 19.2425 12.272 20.5348C12.3285 20.6021 12.4121 20.6408 12.5001 20.6408C12.588 20.6408 12.6717 20.6021 12.7282 20.5348C13.8162 19.2425 13.6965 17.1316 13.691 17.0425Z" fill="white"/>
<path d="M18.4663 13.4815C18.3014 13.4815 18.168 13.3481 18.168 13.1832V9.62655C18.168 9.46167 18.3014 9.32825 18.4663 9.32825C18.6312 9.32825 18.7646 9.46167 18.7646 9.62655V13.1832C18.7646 13.3481 18.6312 13.4815 18.4663 13.4815Z" fill="#5C546A"/>
<path d="M19.4349 7.97962L13.3671 5.89934C12.7101 5.67385 11.9856 5.67385 11.3281 5.89934L5.26032 7.97962C4.94307 8.08858 4.73828 8.37522 4.73828 8.71055C4.73828 9.04589 4.94307 9.33252 5.26032 9.44148L8.22736 10.4587C8.25854 10.4692 8.29116 10.4748 8.32409 10.4748C8.32524 10.4748 8.3267 10.4748 8.32789 10.4748L16.6794 10.3705C16.7108 10.3702 16.7423 10.3647 16.7723 10.3544L19.4349 9.44148C19.7521 9.33252 19.9569 9.04589 19.9569 8.71055C19.9569 8.37522 19.7521 8.08858 19.4349 7.97962Z" fill="#5C546A"/>
<path d="M11.4768 10.9953C11.7932 10.9723 12.1323 10.9582 12.5 10.9582C12.8677 10.9582 13.2068 10.9723 13.5232 10.9953C14.7379 11.0655 16.1812 11.2663 16.9746 11.6978V9.31136C16.9746 8.28653 14.6552 7.81982 12.5 7.81982C10.3448 7.81982 8.02539 8.28653 8.02539 9.31136V11.6978C8.81878 11.2662 10.2621 11.0655 11.4768 10.9953Z" fill="#5D647F"/>
<path d="M12.5 9.47253C11.2055 9.47253 9.06093 9.64279 8.02539 10.2061V10.9641C8.02539 10.7042 9.59356 10.0691 12.5 10.0691C15.4065 10.0691 16.9746 10.7042 16.9746 10.9641V10.2061C15.9391 9.64283 13.7945 9.47253 12.5 9.47253Z" fill="#5C546A"/>
<path d="M12.5001 7.8197C12.4994 7.8197 12.4987 7.81974 12.498 7.81974V10.9581C12.4988 10.9581 12.4994 10.958 12.5001 10.958C12.8678 10.958 13.2069 10.9722 13.5233 10.9952C14.738 11.0654 16.1813 11.2662 16.9747 11.6977V9.31124C16.9747 8.2864 14.6553 7.8197 12.5001 7.8197Z" fill="#68748D"/>
<path d="M12.498 9.47257V10.0692C12.4988 10.0692 12.4994 10.0691 12.5001 10.0691C15.4065 10.0691 16.9747 10.7042 16.9747 10.9641V10.2061C15.9392 9.64283 13.7946 9.47253 12.5001 9.47253C12.4994 9.47253 12.4987 9.47257 12.498 9.47257Z" fill="#5D647F"/>
<path d="M18.7621 15.2774H18.1655C18.0008 15.2774 17.8672 15.1439 17.8672 14.9791V13.7859C17.8672 13.4564 18.1343 13.1893 18.4638 13.1893C18.7933 13.1893 19.0604 13.4564 19.0604 13.7859V14.9791C19.0604 15.1439 18.9269 15.2774 18.7621 15.2774Z" fill="#FFE671"/>
<path d="M17.8672 13.7859V14.9791C17.8672 15.1439 18.0008 15.2774 18.1655 15.2774H18.4638V13.1893C18.1343 13.1893 17.8672 13.4564 17.8672 13.7859Z" fill="#FFCD00"/>
<path d="M6.5339 22.8226C6.5339 22.1897 6.28246 21.5827 5.83492 21.1351L4.51021 19.8104C3.87825 20.4369 3.55078 21.3166 3.55078 22.1006V23.7352C3.55078 24.3318 4.08595 24.8171 4.74401 24.8171H6.53393L6.5339 22.8226Z" fill="#B4B6BC"/>
<path d="M20.4877 19.8133L19.1658 21.1352C18.7182 21.5828 18.4668 22.1898 18.4668 22.8227V24.8173H20.2566C20.9146 24.8173 21.4498 24.3319 21.4498 23.7353V22.1007C21.4498 21.3186 21.1238 20.4412 20.4877 19.8133Z" fill="#B4B6BC"/>
<path d="M11.5014 22.1328L11.3809 22.8559L13.3419 24.8171H13.9458L13.8979 24.5294L11.5014 22.1328Z" fill="#009BCA"/>
<path d="M11.1152 24.454L11.4783 24.8171H12.322L11.2358 23.7308L11.1152 24.454Z" fill="#009BCA"/>
</g>
<defs>
<clipPath id="clip0_1432_4331">
<rect width="24" height="24" fill="white" transform="translate(0.5 0.817139)"/>
</clipPath>
</defs>
</svg>
