<svg width="34" height="34" viewBox="0 0 34 34" fill="none" xmlns="http://www.w3.org/2000/svg">
<rect y="0.264282" width="33.1057" height="33.1057" rx="7.08143" fill="white"/>
<rect x="5.19531" y="14.8737" width="1.20195" height="3.79705" rx="0.600975" fill="#3B3B3B"/>
<rect x="7.43555" y="13.2619" width="1.20195" height="7.02047" rx="0.600975" fill="#3B3B3B"/>
<rect x="9.67578" y="10.1068" width="1.20195" height="13.3307" rx="0.600975" fill="#3B3B3B"/>
<rect x="11.9141" y="13.2619" width="1.20195" height="7.02047" rx="0.600975" fill="#3B3B3B"/>
<rect x="14.1543" y="15.379" width="1.20195" height="2.78632" rx="0.600975" fill="#3B3B3B"/>
<rect x="16.3945" y="14.2863" width="1.20195" height="4.97168" rx="0.600975" fill="#3B3B3B"/>
<rect x="18.6348" y="11.3439" width="1.20195" height="10.8566" rx="0.600975" fill="#3B3B3B"/>
<rect x="20.873" y="8.39996" width="1.20195" height="16.7444" rx="0.600975" fill="#3B3B3B"/>
<rect x="23.1133" y="11.9901" width="1.20195" height="9.56415" rx="0.600975" fill="#3B3B3B"/>
<rect x="25.3535" y="14.2863" width="1.20195" height="4.97168" rx="0.600975" fill="#3B3B3B"/>
<rect x="27.5938" y="15.379" width="1.20195" height="2.78632" rx="0.600975" fill="#3B3B3B"/>
</svg>
