<svg width="25" height="25" viewBox="0 0 25 25" fill="none" xmlns="http://www.w3.org/2000/svg">
<g clip-path="url(#clip0_1432_4291)">
<path fill-rule="evenodd" clip-rule="evenodd" d="M22.8694 2.03406C22.0576 1.22233 20.9941 0.817139 19.9305 0.817139C18.8669 0.817139 17.8034 1.22233 16.9917 2.03406C15.6653 3.36048 15.423 5.36036 16.2635 6.93316L15.5385 9.18409C15.5023 9.29645 15.6085 9.40262 15.7208 9.36639L17.9718 8.64011C19.5445 9.48058 21.543 9.23828 22.8694 7.9119C24.4928 6.2898 24.4928 3.65748 22.8694 2.03406Z" fill="#3BC3A4"/>
<path fill-rule="evenodd" clip-rule="evenodd" d="M22.8701 7.91186C24.4935 6.28979 24.4935 3.65748 22.8701 2.03401C22.0597 1.22369 20.9989 0.818498 19.9367 0.817139C19.9353 0.817139 19.9326 0.817139 19.9312 0.817139L19.9257 0.817139C19.797 0.817139 19.6684 0.822623 19.5397 0.834951C20.3363 0.982795 21.0974 1.36604 21.7134 1.98203C23.3368 3.6055 23.3368 6.2364 21.7134 7.85987C21.0016 8.57167 20.0955 8.97137 19.166 9.05898C20.4678 9.30123 21.864 8.91934 22.8701 7.91186Z" fill="#00A887"/>
<path fill-rule="evenodd" clip-rule="evenodd" d="M13.2956 12.4605V11.3052H12.1814C9.53 11.3052 8.11053 9.074 6.43784 10.1061C5.34416 10.781 5.852 10.4962 4.32031 11.6337V12.4605C4.32031 14.0703 5.83423 16.0921 7.6835 16.7779C8.09005 16.9284 8.44869 17.0037 8.80728 17.0037C9.16728 17.0037 9.52592 16.9284 9.93242 16.7779C11.7817 16.0921 13.2956 14.0703 13.2956 12.4605Z" fill="#FFBC85"/>
<path fill-rule="evenodd" clip-rule="evenodd" d="M14.8452 12.4633L14.8439 12.1717C14.8439 11.7022 14.4592 11.3052 13.9897 11.3052H13.2957V12.4606C13.2957 12.9164 13.1753 13.4037 12.959 13.8842C13.8104 14.0155 14.8452 13.3229 14.8452 12.4633Z" fill="#EA9A58"/>
<path fill-rule="evenodd" clip-rule="evenodd" d="M4.31963 12.4606V11.6338V11.3053H3.62564C3.15614 11.3053 2.77149 11.7023 2.77149 12.1718V12.4633C2.77013 13.323 3.80494 14.0156 4.65633 13.8842C4.44009 13.4037 4.31963 12.9164 4.31963 12.4606Z" fill="#EA9A58"/>
<path fill-rule="evenodd" clip-rule="evenodd" d="M13.2948 9.69549C13.2948 6.40205 7.9907 4.75941 6.33034 6.91538C4.16214 7.10564 4.32095 9.99253 4.32095 10.3717L4.31959 11.3053V11.6338C5.85264 10.4963 5.34348 10.781 6.43712 10.1061C8.10981 9.07402 9.52928 11.3052 12.1807 11.3052H13.2949V9.69549H13.2948Z" fill="#375E7D"/>
<path fill-rule="evenodd" clip-rule="evenodd" d="M10.9991 16.2153C11.8587 15.6212 12.5664 14.7643 12.9592 13.8841C13.1755 13.4037 13.296 12.9164 13.296 12.4605V11.3052H12.1818C12.0736 11.3052 11.9669 11.3025 11.8628 11.2957V11.3052V12.4605C11.8628 13.7486 10.8951 15.2982 9.56189 16.2194C9.22791 16.4494 8.87063 16.6396 8.4997 16.7779C8.3587 16.8299 8.22319 16.8737 8.0918 16.9079C8.33953 16.9723 8.57363 17.0037 8.80767 17.0037C9.16767 17.0037 9.52631 16.9284 9.93281 16.7779C10.3051 16.6396 10.6638 16.448 10.9991 16.2153Z" fill="#F5A96C"/>
<path fill-rule="evenodd" clip-rule="evenodd" d="M11.862 11.2957C11.966 11.3025 12.0728 11.3053 12.1809 11.3053H13.2952V9.69547C13.2952 7.16994 10.1784 5.61632 7.97461 5.99821C9.89095 6.29249 11.862 7.68735 11.862 9.69547L11.862 11.2957Z" fill="#2B4D66"/>
<path fill-rule="evenodd" clip-rule="evenodd" d="M4.675 22.8515L3.67028 17.5841L2.9845 17.7949C1.46514 18.263 0.912109 19.7674 0.912109 21.1828V24.6722C0.912109 24.7522 0.976984 24.8171 1.057 24.8171H3.89889L4.675 22.8515Z" fill="#EB5468"/>
<path fill-rule="evenodd" clip-rule="evenodd" d="M16.5535 21.1828C16.5535 19.7674 16.0005 18.263 14.4811 17.7949L13.7953 17.5841L13.293 22.8515L13.5668 24.8171H16.4087C16.4887 24.8171 16.5535 24.7522 16.5535 24.6722V21.1828H16.5535Z" fill="#EB5468"/>
<path fill-rule="evenodd" clip-rule="evenodd" d="M16.5527 21.1828C16.5527 19.7674 15.9997 18.263 14.4803 17.7949L13.7945 17.5841L13.2949 18.0934L13.7945 18.5765C15.021 19.1638 15.4795 20.5244 15.4795 21.8139V23.8343V24.8171H16.4078C16.4878 24.8171 16.5527 24.7522 16.5527 24.6722V23.8342V21.1828Z" fill="#E5384F"/>
<path fill-rule="evenodd" clip-rule="evenodd" d="M4.84469 22.8515L3.66953 17.5841L2.98375 17.7949C2.87148 17.8291 2.76475 17.8688 2.66345 17.914V22.3491H2.29661C2.13784 22.3491 2.00781 22.4791 2.00781 22.6393V23.8343V23.926C2.00781 24.4147 2.40616 24.8144 2.89342 24.8172H3.89814C3.41083 24.8144 4.84469 22.8515 4.84469 22.8515Z" fill="#E5384F"/>
<path d="M19.9697 7.53283C19.7696 7.53283 19.6075 7.37135 19.6075 7.17133V7.16997C19.6075 6.96991 19.7696 6.80782 19.9697 6.80782C20.1697 6.80782 20.3318 6.96996 20.3318 7.16997C20.3319 7.36999 20.1697 7.53283 19.9697 7.53283ZM19.9669 5.98122C19.7669 5.98122 19.6048 5.81908 19.6048 5.61907V5.06055C19.6048 4.6608 19.8573 4.35935 20.0602 4.11715C20.1817 3.97221 20.3193 3.80796 20.3193 3.70952V3.35496C20.3193 3.052 20.0727 2.80554 19.7698 2.80554C19.4669 2.80554 19.2204 3.05205 19.2204 3.35496V3.70947C19.2204 3.90954 19.0583 4.07163 18.8583 4.07163C18.6582 4.07163 18.4961 3.90949 18.4961 3.70947V3.35496C18.4961 2.65258 19.0675 2.08118 19.7699 2.08118C20.4723 2.08118 21.0437 2.65258 21.0437 3.35496V3.70947C21.0437 4.07121 20.8162 4.34275 20.6155 4.58229C20.4747 4.75033 20.3291 4.9241 20.3291 5.0605V5.61902C20.3291 5.81908 20.167 5.98122 19.9669 5.98122Z" fill="#EFF6FF"/>
<path fill-rule="evenodd" clip-rule="evenodd" d="M13.1954 15.9319H4.26945C3.93955 15.9319 3.66992 16.2016 3.66992 16.5315V17.5841V23.3552H13.795V17.5841V16.5315C13.795 16.2016 13.5253 15.9319 13.1954 15.9319Z" fill="#EFF6FF"/>
<path fill-rule="evenodd" clip-rule="evenodd" d="M13.7958 22.8515H3.67072H3.30388C3.1437 22.8515 3.01367 22.9829 3.01367 23.1417V23.9261C3.01367 24.4147 3.41202 24.8144 3.89928 24.8172H3.90477H13.5617H13.5672C14.0545 24.8145 14.4528 24.4148 14.4528 23.9261V23.1417C14.4528 22.9829 14.3228 22.8515 14.1626 22.8515H13.7958Z" fill="#375E7D"/>
<path fill-rule="evenodd" clip-rule="evenodd" d="M8.7318 18.7053C8.11309 18.7053 7.60938 19.2076 7.60938 19.8277C7.60938 20.4478 8.11309 20.9502 8.7318 20.9502C9.35186 20.9502 9.85558 20.4478 9.85558 19.8277C9.85558 19.2076 9.35186 18.7053 8.7318 18.7053Z" fill="#3BC3A4"/>
<path fill-rule="evenodd" clip-rule="evenodd" d="M13.7951 16.5315C13.7951 16.2016 13.5255 15.9319 13.1956 15.9319H12.1348C12.4633 15.9319 12.7329 16.2016 12.7329 16.5315V17.5841V22.8515H13.2928H13.7951V17.5841V16.5315Z" fill="#D9EEFF"/>
<path fill-rule="evenodd" clip-rule="evenodd" d="M14.4532 23.1417C14.4532 22.9829 14.3232 22.8515 14.163 22.8515H13.7962H13.2938H12.8161C12.9763 22.8515 13.1063 22.9829 13.1063 23.1417V23.3553V23.8344V23.9261C13.1063 24.4148 12.708 24.8145 12.2207 24.8173H13.5621H13.5676C14.0549 24.8145 14.4532 24.4148 14.4532 23.9261V23.8344V23.1417Z" fill="#2B4D66"/>
</g>
<defs>
<clipPath id="clip0_1432_4291">
<rect width="24" height="24" fill="white" transform="translate(0.5 0.817139)"/>
</clipPath>
</defs>
</svg>
