<svg width="40" height="57" viewBox="0 0 40 57" fill="none" xmlns="http://www.w3.org/2000/svg">
<path fill-rule="evenodd" clip-rule="evenodd" d="M8.88185 28.2202C8.88185 34.2455 13.8696 39.1474 20.0004 39.1474C26.1312 39.1474 31.1187 34.2455 31.1187 28.2202V11.6144C31.1187 5.58928 26.131 0.687378 20.0002 0.687378C13.8694 0.687378 8.88185 5.58928 8.88185 11.6144V28.2202ZM13.4375 11.6144V28.2202C13.4375 31.7767 16.3814 34.6701 20.0002 34.6701C23.6189 34.6701 26.563 31.7767 26.563 28.2202V11.6144C26.563 8.05795 23.6187 5.16468 20.0002 5.16468C16.3816 5.16468 13.4375 8.05795 13.4375 11.6144Z" fill="url(#paint0_radial_525_11135)"/>
<path d="M37.8945 28.728C36.6502 28.5349 35.4853 29.3682 35.2887 30.5894C34.1103 37.9109 27.5377 43.432 20.0002 43.432C12.4626 43.432 5.8901 37.9109 4.71169 30.5894C4.51542 29.3682 3.34878 28.5349 2.10584 28.728C0.863278 28.9211 0.015353 30.0676 0.211817 31.2888C0.947939 35.8626 3.3353 40.0638 6.93448 43.1186C10.1502 45.8479 14.1467 47.4916 18.3343 47.8383V51.9898H12.1728C10.9146 51.9898 9.89492 52.9922 9.89492 54.2285C9.89492 55.4648 10.9146 56.4671 12.1728 56.4671H29.0517C30.3097 56.4671 31.3296 55.4648 31.3296 54.2285C31.3296 52.9922 30.3097 51.9898 29.0517 51.9898H22.89V47.698C26.6283 47.1575 30.1649 45.5806 33.0653 43.1188C36.6645 40.064 39.052 35.8628 39.7882 31.289C39.985 30.0676 39.1371 28.9211 37.8945 28.728Z" fill="url(#paint1_radial_525_11135)"/>
<defs>
<radialGradient id="paint0_radial_525_11135" cx="0" cy="0" r="1" gradientUnits="userSpaceOnUse" gradientTransform="translate(19.9973 0.718471) rotate(89.5914) scale(59.4966 92.9678)">
<stop stop-color="#B6FFED"/>
<stop offset="0.455647" stop-color="#E0C6FF"/>
<stop offset="1" stop-color="#ACAFFF"/>
</radialGradient>
<radialGradient id="paint1_radial_525_11135" cx="0" cy="0" r="1" gradientUnits="userSpaceOnUse" gradientTransform="translate(19.9973 0.718471) rotate(89.5914) scale(59.4966 92.9678)">
<stop stop-color="#B6FFED"/>
<stop offset="0.455647" stop-color="#E0C6FF"/>
<stop offset="1" stop-color="#ACAFFF"/>
</radialGradient>
</defs>
</svg>
