<svg width="43" height="43" viewBox="0 0 43 43" fill="none" xmlns="http://www.w3.org/2000/svg">
<g id="Frame 11">
<circle id="Ellipse 3" cx="21.1171" cy="21.05" r="21.05" fill="#3B3B3B"/>
<path id="Vector" fill-rule="evenodd" clip-rule="evenodd" d="M22.1609 13.9011C22.1609 13.4155 21.9963 12.9367 21.6802 12.5024C21.407 12.1271 21.2466 11.7177 21.2085 11.2989L21.1171 10.2947L21.0257 11.2988C20.9876 11.7177 20.8272 12.127 20.5539 12.5024C20.2379 12.9367 20.0733 13.4156 20.0733 13.9011V28.199C20.0733 28.6845 20.2379 29.1634 20.5539 29.5977C20.8272 29.9731 20.9876 30.3824 21.0257 30.8013L21.1171 31.8054L21.2085 30.8012C21.2466 30.3823 21.407 29.9731 21.6802 29.5976C21.9963 29.1634 22.1609 28.6846 22.1609 28.199V13.9011ZM16.4612 13.9365C16.7774 14.3707 16.9419 14.8496 16.9419 15.3351V26.765C16.9419 27.2505 16.7774 27.7293 16.4612 28.1636C16.188 28.539 16.0276 28.9483 15.9894 29.3672L15.8981 30.3714L15.8068 29.3672C15.7686 28.9483 15.6082 28.539 15.335 28.1636C15.0188 27.7293 14.8543 27.2505 14.8543 26.765V15.3351C14.8543 14.8496 15.0188 14.3707 15.335 13.9365C15.6082 13.5611 15.7686 13.1518 15.8068 12.7329L15.8981 11.7287L15.9894 12.7329C16.0276 13.1518 16.188 13.5611 16.4612 13.9365ZM14.3324 16.7692C14.3324 16.2836 14.1679 15.8048 13.8518 15.3705C13.5785 14.9951 13.4181 14.5858 13.38 14.167L13.2886 13.1628L13.1973 14.167C13.1592 14.5858 12.9987 14.9951 12.7255 15.3705C12.4094 15.8048 12.2448 16.2836 12.2448 16.7692V25.3309C12.2448 25.8164 12.4094 26.2953 12.7255 26.7295C12.9987 27.105 13.1592 27.5142 13.1973 27.9331L13.2886 28.9373L13.38 27.9331C13.4181 27.5142 13.5785 27.105 13.8518 26.7295C14.1679 26.2953 14.3324 25.8164 14.3324 25.3309V16.7692ZM11.2423 18.2386C11.5584 18.6729 11.7229 19.1517 11.7229 19.6373V22.4628C11.7229 22.9483 11.5584 23.4272 11.2423 23.8615C10.9691 24.2369 10.8086 24.6461 10.7705 25.065L10.6792 26.0692L10.5878 25.065C10.5497 24.6461 10.3892 24.2369 10.116 23.8615C9.79992 23.4272 9.63536 22.9483 9.63536 22.4628V19.6373C9.63536 19.1517 9.79992 18.6729 10.116 18.2386C10.3892 17.8632 10.5497 17.4539 10.5878 17.0351L10.6792 16.0309L10.7705 17.0351C10.8086 17.4539 10.9691 17.8632 11.2423 18.2386ZM9.11336 21.05L9.11346 21.0713V21.0288L9.11336 21.05ZM7.02588 21.0713L7.02598 21.05C7.03072 21.5283 7.19506 21.9995 7.50653 22.4274C7.77975 22.8028 7.94019 23.2121 7.97831 23.631L8.06967 24.6352L8.16104 23.631C8.19915 23.2121 8.35959 22.8028 8.63282 22.4274C8.94428 21.9995 9.10862 21.5283 9.11336 21.05C9.10862 20.5718 8.94428 20.1006 8.63282 19.6727C8.35959 19.2973 8.19915 18.888 8.16104 18.4691L8.06967 17.4649L7.97831 18.4691C7.94019 18.888 7.77975 19.2973 7.50653 19.6727C7.19506 20.1006 7.03072 20.5718 7.02598 21.05L7.02588 21.0288V21.0713ZM19.0707 12.5024C19.3869 12.9367 19.5514 13.4155 19.5514 13.9011V28.199C19.5514 28.6846 19.3869 29.1634 19.0707 29.5976C18.7975 29.9731 18.6371 30.3823 18.5989 30.8012L18.5076 31.8054L18.4163 30.8012C18.3781 30.3823 18.2177 29.9731 17.9445 29.5976C17.6283 29.1634 17.4638 28.6846 17.4638 28.199V13.9011C17.4638 13.4155 17.6283 12.9367 17.9445 12.5024C18.2177 12.127 18.3781 11.7177 18.4163 11.2989L18.5076 10.2947L18.5989 11.2989C18.6371 11.7177 18.7975 12.127 19.0707 12.5024ZM24.2897 12.5024C24.6058 12.9367 24.7703 13.4155 24.7703 13.9011V28.199C24.7703 28.6846 24.6058 29.1634 24.2897 29.5976C24.0165 29.9731 23.856 30.3823 23.8179 30.8012L23.7265 31.8054L23.6352 30.8012C23.5971 30.3823 23.4366 29.9731 23.1634 29.5976C22.8473 29.1634 22.6828 28.6846 22.6828 28.199V13.9011C22.6828 13.4155 22.8473 12.9367 23.1634 12.5024C23.4366 12.127 23.5971 11.7177 23.6352 11.2989L23.7265 10.2947L23.8179 11.2989C23.856 11.7177 24.0165 12.127 24.2897 12.5024ZM27.3798 15.3351C27.3798 14.8496 27.2153 14.3707 26.8992 13.9365C26.6259 13.5611 26.4655 13.1518 26.4274 12.7329L26.336 11.7287L26.2447 12.7329C26.2065 13.1518 26.0461 13.5611 25.7729 13.9365C25.4568 14.3707 25.2922 14.8496 25.2922 15.3351V26.765C25.2922 27.2505 25.4568 27.7293 25.7729 28.1636C26.0461 28.539 26.2065 28.9483 26.2447 29.3672L26.336 30.3714L26.4274 29.3672C26.4655 28.9483 26.6259 28.539 26.8992 28.1636C27.2153 27.7293 27.3798 27.2505 27.3798 26.765V15.3351ZM29.5086 15.3705C29.8248 15.8048 29.9893 16.2836 29.9893 16.7692V25.3309C29.9893 25.8164 29.8248 26.2953 29.5086 26.7295C29.2354 27.105 29.075 27.5142 29.0368 27.9331L28.9455 28.9373L28.8542 27.9331C28.816 27.5142 28.6556 27.105 28.3824 26.7295C28.0663 26.2953 27.9017 25.8164 27.9017 25.3309V16.7692C27.9017 16.2836 28.0663 15.8048 28.3824 15.3705C28.6556 14.9951 28.816 14.5858 28.8542 14.167L28.9455 13.1628L29.0368 14.167C29.075 14.5858 29.2354 14.9951 29.5086 15.3705ZM32.5988 19.6373C32.5988 19.1517 32.4343 18.6729 32.1181 18.2386C31.8449 17.8632 31.6845 17.4539 31.6463 17.0351L31.555 16.0309L31.4637 17.0351C31.4255 17.4539 31.2651 17.8632 30.9919 18.2386C30.6758 18.6729 30.5112 19.1517 30.5112 19.6373V22.4628C30.5112 22.9483 30.6758 23.4272 30.9919 23.8615C31.2651 24.2369 31.4255 24.6461 31.4637 25.065L31.555 26.0692L31.6463 25.065C31.6845 24.6461 31.8449 24.2369 32.1181 23.8615C32.4343 23.4272 32.5988 22.9483 32.5988 22.4628V19.6373ZM35.2081 21.05C35.2082 21.0571 35.2083 21.0642 35.2083 21.0713V21.0288C35.2083 21.0359 35.2082 21.043 35.2081 21.05ZM33.1208 21.05C33.1255 21.5283 33.2898 21.9995 33.6013 22.4274C33.8746 22.8028 34.035 23.2121 34.0731 23.631L34.1645 24.6352L34.2558 23.631C34.294 23.2121 34.4544 22.8028 34.7276 22.4274C35.0391 21.9995 35.2034 21.5283 35.2081 21.05C35.2034 20.5718 35.0391 20.1006 34.7276 19.6727C34.4544 19.2973 34.294 18.888 34.2558 18.4691L34.1645 17.4649L34.0731 18.4691C34.035 18.888 33.8746 19.2973 33.6013 19.6727C33.2898 20.1006 33.1255 20.5718 33.1208 21.05ZM33.1208 21.05C33.1207 21.043 33.1207 21.0359 33.1207 21.0288V21.0713C33.1207 21.0642 33.1207 21.0571 33.1208 21.05Z" fill="url(#paint0_linear_906_10146)"/>
<circle id="Ellipse 5" cx="21.1171" cy="21.05" r="4.83952" fill="#3B3B3B"/>
</g>
<defs>
<linearGradient id="paint0_linear_906_10146" x1="21.1171" y1="10.2947" x2="21.1171" y2="31.8054" gradientUnits="userSpaceOnUse">
<stop stop-color="#B6FFED"/>
<stop offset="0.813052" stop-color="#E0C6FF"/>
</linearGradient>
</defs>
</svg>
