<svg width="76" height="75" viewBox="0 0 76 75" fill="none" xmlns="http://www.w3.org/2000/svg">
<rect x="0.0673828" width="75.0097" height="75.0097" rx="16.0448" fill="white"/>
<rect x="11.8406" y="33.1014" width="2.72334" height="8.60322" rx="1.36167" fill="#3B3B3B"/>
<rect x="16.9153" y="29.4497" width="2.72334" height="15.9067" rx="1.36167" fill="#3B3B3B"/>
<rect x="21.99" y="22.3009" width="2.72334" height="30.2042" rx="1.36167" fill="#3B3B3B"/>
<rect x="27.0647" y="29.4497" width="2.72334" height="15.9067" rx="1.36167" fill="#3B3B3B"/>
<rect x="32.1399" y="34.2465" width="2.72334" height="6.31315" rx="1.36167" fill="#3B3B3B"/>
<rect x="37.2146" y="31.7705" width="2.72334" height="11.2647" rx="1.36167" fill="#3B3B3B"/>
<rect x="42.2893" y="25.1039" width="2.72334" height="24.5985" rx="1.36167" fill="#3B3B3B"/>
<rect x="47.364" y="18.4335" width="2.72334" height="37.939" rx="1.36167" fill="#3B3B3B"/>
<rect x="52.4387" y="26.568" width="2.72334" height="21.6701" rx="1.36167" fill="#3B3B3B"/>
<rect x="57.5134" y="31.7705" width="2.72334" height="11.2647" rx="1.36167" fill="#3B3B3B"/>
<rect x="62.5884" y="34.2465" width="2.72334" height="6.31315" rx="1.36167" fill="#3B3B3B"/>
</svg>
